<?xml version="1.0" standalone="no"?><!DOCTYPE svg PUBLIC "-//W3C//DTD SVG 1.1//EN" "http://www.w3.org/Graphics/SVG/1.1/DTD/svg11.dtd"><svg t="1578284392043" class="icon" viewBox="0 0 1024 1024" version="1.1" xmlns="http://www.w3.org/2000/svg" p-id="2096" xmlns:xlink="http://www.w3.org/1999/xlink" width="200" height="200"><defs><style type="text/css"></style></defs><path d="M815.77717637 703.11232549L385.51069766 703.11232549c-37.01800195 0-59.75368682-20.91621885-67.57478438-62.21981514L262.85455801 223.32182363l-0.65745439-7.70957314c-3.64612763-44.04583652-9.14230195-110.61780117-123.11752589-110.61780117-13.56910049 0-24.56774297 11.00493896-24.56774296 24.56774297 0 13.56910049 10.99864336 24.57403857 24.56774296 24.57403857 68.72420479 0 70.65519609 23.27082276 74.14662833 65.52687305l0.79955771 9.08743886 55.28461729 419.22556523 0.1906708 1.26544219c11.95199648 64.50786386 55.30890059 103.00626211 116.0096458 103.00626211l430.26557959 0c13.56999961 0 24.56774297-10.98065479 24.56774297-24.56684384C840.34581934 714.12985567 829.34717598 703.11232549 815.77717637 703.11232549z" p-id="2097"></path><path d="M876.12266241 226.35906435c-15.72673711-17.61455742-38.71694971-26.92324599-66.48742178-26.92324599L336.66391573 199.43581836c-13.56910049 0-24.57403857 10.99864336-24.57403858 24.56774297s11.00493896 24.57403857 24.57403857 24.57403857l472.97222491 0c9.33297188 0 22.07193487 1.81946602 29.8183834 10.50127999 7.85077734 8.78614277 8.31756094 22.23202676 7.25987812 32.17928203l-36.72210234 218.80095292c-2.91402422 16.88245401-17.20263692 46.78717852-52.25906865 52.67728477l-361.25446905 23.71961778c-13.54481631 0.88499971-23.80595977 12.59056318-22.91466357 26.12908476 0.86071641 12.98539599 11.66329248 22.95693545 24.50028867 22.95693545 0.53513701 0 1.0882626-0.0242833 1.62969521-0.04946661l362.40389034-23.79336766 2.12705771-0.23474093c55.43751357-8.52172207 87.25524082-52.87335205 94.20662812-93.16333564l36.85881007-219.59331592 0.17717959-1.29152461C899.58415508 261.2131332 887.21933897 238.79133565 876.12266241 226.35906435z" p-id="2098"></path><path d="M764.3293584 467.73651026c-6.72653935-0.95335401-12.94132588 3.70728633-13.90007549 10.42123447-0.06025957 0.4308082-0.76807881 4.59858252-6.54036591 18.48786504-2.60283516 6.27234697 0.37414599 13.45307871 6.63300263 16.05951122 1.54964971 0.6394667 3.14786602 0.94705752 4.71640255 0.94705753 4.81353662 0 9.38243847-2.85286553 11.34940516-7.57466456 7.12496953-17.16036503 7.90653955-22.63765166 8.17006114-24.43912998C775.71563809 474.917242 771.05050127 468.69526075 764.3293584 467.73651026z" p-id="2099"></path><path d="M784.89571455 421.76058242l13.40271299-79.55735976c2.41036612-21.16175273-4.57429834-33.98705684-10.85743828-41.02658438-9.20435977-10.29801797-23.20336846-15.7456248-40.51662978-15.74562481l-78.56803125 0c-6.79309453 0-12.28387148 5.50246904-12.28387149 12.28387149 0 6.78769805 5.49077695 12.28387148 12.28387149 12.28387148l78.56803125 0c7.05121963 0 16.61263682 1.3095123 22.18256015 7.54408477 4.28469521 4.78295684 5.89010625 12.14806377 4.86929883 21.22920703l-13.31817011 78.89360976c-1.12603623 6.68966484 3.38260693 13.0339626 10.07586826 14.15909971 0.68983242 0.1169209 1.38416133 0.17088398 2.05330781 0.17088399C778.67912891 431.99654258 783.87580538 427.75501836 784.89571455 421.76058242z" p-id="2100"></path><path d="M365.95975244 776.8290456c-31.31227002 0-56.69845839 25.37989278-56.69845839 56.68586719 0 31.31766651 25.38618838 56.71015049 56.69845839 56.71015049 31.3113709 0 56.69845839-25.39068487 56.69845841-56.71015049C422.65821085 802.20893838 397.27202335 776.8290456 365.95975244 776.8290456z" p-id="2101"></path><path d="M759.07871797 776.8290456c-31.31047178 0-56.69845839 25.37989278-56.6984584 56.68586719 0 31.31766651 25.38798662 56.71015049 56.6984584 56.71015049 31.31317002 0 56.69845839-25.39068487 56.6984584-56.71015049C815.77717637 802.20893838 790.39278711 776.8290456 759.07871797 776.8290456z" p-id="2102"></path></svg>